# xmcd
#
# Track frame offsets:
#	150
#	11997
#	22492
#	31649
#	50850
#	68268
#	85838
#	107955
#	124614
#	136285
#	161437
#	183052
#	200692
#	220547
#	233664
#	248616
#	266224
#	288280
#	304946
#	331559
#
# Disc length: 4482 seconds
#
# Revision: 0
# Processed by: cddbd v1.5.2PL0 Copyright (c) Steve Scherf et al.
# Submitted via: audiograbber 1.83.01
#
DISCID=12118014
DTITLE=Omar and the Howlers - Special Edition
DYEAR=1900
DGENRE=Blues
TTITLE0=Oldie
TTITLE1=Oldie
TTITLE2=Oldie
TTITLE3=Down in Mississippi
TTITLE4=Hit the Road Jack
TTITLE5=Border Girl
TTITLE6=Mississippi Hoodo Man
TTITLE7=Rattle Snake Shake
TTITLE8=I´m a Roller Baby
TTITLE9=unknown
TTITLE10=Born on the Bayou
TTITLE11=Hard Times in the Land of Plenty
TTITLE12=Magic Man
TTITLE13=The Night i think of you
TTITLE14=Bad Seed
TTITLE15=Got to get out of this Place
TTITLE16=unknown
TTITLE17=Wall of Pride
TTITLE18=Boogie Man
TTITLE19=Mississippi Queen (nur halb drauf)
EXTD=
EXTT0=
EXTT1=
EXTT2=
EXTT3=
EXTT4=
EXTT5=
EXTT6=
EXTT7=
EXTT8=
EXTT9=
EXTT10=
EXTT11=
EXTT12=
EXTT13=
EXTT14=
EXTT15=
EXTT16=
EXTT17=
EXTT18=
EXTT19=
PLAYORDER=
